<svg width="23" height="28" viewBox="0 0 23 28" fill="none" xmlns="http://www.w3.org/2000/svg">
<path d="M5.24107 27.8116C3.91437 27.8116 2.7821 27.3397 1.84426 26.3958C0.90642 25.4519 0.4375 24.3123 0.4375 22.9771V5.02011C0.4375 3.68485 0.90642 2.54527 1.84426 1.60138C2.7821 0.657492 3.91437 0.185547 5.24107 0.185547H22.3967V20.9051C21.8248 20.9051 21.3388 21.1065 20.9385 21.5094C20.5382 21.9123 20.338 22.4015 20.338 22.9771C20.338 23.5526 20.5382 24.0418 20.9385 24.4447C21.3388 24.8476 21.8248 25.049 22.3967 25.049V27.8116H5.24107ZM3.1824 18.5914C3.50264 18.4303 3.83431 18.3152 4.17742 18.2461C4.52054 18.177 4.87508 18.1425 5.24107 18.1425H5.9273V2.94815H5.24107C4.66922 2.94815 4.18314 3.14959 3.78284 3.55247C3.38255 3.95535 3.1824 4.44457 3.1824 5.02011V18.5914ZM8.67219 18.1425H19.6518V2.94815H8.67219V18.1425ZM5.24107 25.049H18.0392C17.9019 24.7267 17.7933 24.3986 17.7132 24.0648C17.6331 23.731 17.5931 23.3684 17.5931 22.9771C17.5931 22.6087 17.6274 22.2519 17.696 21.9065C17.7647 21.5612 17.879 21.2274 18.0392 20.9051H5.24107C4.64634 20.9051 4.15455 21.1065 3.76569 21.5094C3.37683 21.9123 3.1824 22.4015 3.1824 22.9771C3.1824 23.5756 3.37683 24.0706 3.76569 24.462C4.15455 24.8533 4.64634 25.049 5.24107 25.049Z" fill="#1C1B1F"/>
</svg>
