<svg width="27" height="27" viewBox="0 0 27 27" fill="none" xmlns="http://www.w3.org/2000/svg">
<mask id="mask0_147_136" style="mask-type:alpha" maskUnits="userSpaceOnUse" x="0" y="-1" width="27" height="28">
<rect x="0.187256" y="-0.00292969" width="26.1191" height="26.824" fill="#D9D9D9"/>
</mask>
<g mask="url(#mask0_147_136)">
<path d="M21.4551 22.9945L14.6197 15.9745C14.0756 16.4359 13.4498 16.797 12.7424 17.0578C12.035 17.3185 11.3032 17.4489 10.5471 17.4489C8.68698 17.4489 7.11275 16.7876 5.82439 15.4648C4.53603 14.142 3.89185 12.5257 3.89185 10.6158C3.89185 8.70607 4.53585 7.08918 5.82385 5.76511C7.11185 4.44124 8.68571 3.7793 10.5454 3.7793C12.405 3.7793 13.9794 4.44086 15.2686 5.76399C16.5577 7.08713 17.2023 8.70383 17.2023 10.6141C17.2023 11.4123 17.0719 12.1747 16.811 12.9011C16.55 13.6276 16.2019 14.2595 15.7665 14.7967L22.6019 21.8165L21.4551 22.9945ZM10.5471 15.7727C11.9493 15.7727 13.137 15.2729 14.1101 14.2734C15.0834 13.274 15.5701 12.0542 15.5701 10.6141C15.5701 9.174 15.0834 7.95425 14.1101 6.95487C13.137 5.9553 11.9493 5.45552 10.5471 5.45552C9.14479 5.45552 7.95709 5.9553 6.98397 6.95487C6.01067 7.95425 5.52402 9.174 5.52402 10.6141C5.52402 12.0542 6.01067 13.274 6.98397 14.2734C7.95709 15.2729 9.14479 15.7727 10.5471 15.7727Z" fill="#524C4C" fill-opacity="0.8"/>
</g>
</svg>
